<?xml version="1.0" encoding="UTF-8"?>
<svg id="Layer_2" data-name="Layer 2" xmlns="http://www.w3.org/2000/svg" viewBox="0 0 329.7 341.46">
  <defs>
    <style>
      .cls-1 {
        fill: #afbcb3;
      }

      .cls-2 {
        fill: #e2b2a6;
      }
    </style>
  </defs>
  <g id="Layer_1-2" data-name="Layer 1">
    <g>
      <path class="cls-1" d="m258.11,83.63c22.99,20.77,45.94,41.57,69.02,62.24,2.54,2.28,2.45,4.84,2.45,7.66,0,58.65,0,117.29,0,175.94,0,2.33-.22,4.69.05,6.99.48,4.12-1.44,5.01-5.19,5-106.3-.07-212.6-.06-318.9-.04-2.8,0-5.28.16-5.26-3.96.14-33.48.16-66.97.21-100.45,6.9,3.35,14.57,4.76,21.28,8.57.08,2.33.22,4.65.22,6.98.01,20.48.07,40.96-.07,61.44-.03,3.92.88,5.56,5.25,5.53,25.31-.19,50.62-.13,75.92-.02,3.45.01,5.21-.74,5.17-4.65-.17-21.64-.17-43.28-.23-64.93,7.27-1.96,14.53-3.91,21.8-5.87.02,23.15.14,46.31,0,69.46-.03,4.44,1.11,6.09,5.86,6.02,17.99-.26,35.98-.1,53.98-.09q10.33,0,12.2-9.9c9.69-51.23,49.45-89.44,100.88-96.71,3.71-.52,5.11-1.62,5.06-5.5-.19-15.16-.17-30.32,0-45.48.04-3.25-1.39-5.22-3.59-7.19-13.01-11.69-25.94-23.46-38.95-35.16-3.46-3.11-6.58-6.62-10.6-9.07,1.14-8.94,2.28-17.88,3.42-26.82Zm6.63,235.81c12.66,0,25.31-.13,37.97.08,3.96.06,5.13-1.28,5.11-5.16-.13-24.98-.13-49.96.01-74.93.02-4.03-1.16-5.22-5.19-4.59-39.34,6.14-72.71,39.32-79.27,78.65-.77,4.63-.05,6.18,4.91,6.05,12.15-.31,24.31-.1,36.47-.1Z"/>
      <path class="cls-2" d="m258.11,83.63c-1.14,8.94-2.28,17.88-3.42,26.82-2.44,7.63-4.55,15.4-7.38,22.88-16.71,44.16-46.15,77.16-87.89,99.11-9.39,4.94-19.03,9.48-29.57,11.62-7.27,1.96-14.53,3.91-21.8,5.87-11.12,1.8-22.26,3.12-33.59,2.91-11.9-.22-23.64-.96-35.35-3.4-5.8-1.21-11.3-3.79-17.34-3.86-6.71-3.81-14.39-5.22-21.28-8.57-.05-.69-.11-1.39-.16-2.07.09-4.13.28-8.28.27-12.42-.06-24.07-.17-48.14-.26-72.21-.18-2.35,1.52-3.56,2.99-4.89C56.14,97.57,108.98,49.73,161.79,1.86c1.87-1.7,3.19-2.9,5.75-.56,30.12,27.51,60.36,54.9,90.57,82.33Zm-52.2,80.33c6.22-5.98,10.37-13.25,13.22-21.32,7.32-13.56,11.92-27.95,14.69-43.13,1.06-5.79-.36-9.05-4.52-12.75-20.54-18.24-40.85-36.74-61.11-55.28-2.55-2.34-4.01-2.24-6.5.02-45.6,41.41-91.29,82.74-136.97,124.06-1.7,1.54-2.71,3.13-2.7,5.56.08,19.15.07,38.3.01,57.45,0,2.31.63,3.79,3,4.43,5.43,1.46,10.89,2.84,16.22,4.59,6.87,2.25,14.01,1.97,21.03,2.59,15.55,1.38,31.05.91,46.28-3.06,7.54-.45,14.64-2.51,21.35-5.95,17.47-5.67,33.02-14.84,47.2-26.36,11.01-8.94,21.13-18.76,28.79-30.84Z"/>
      <path class="cls-1" d="m.33,150.31c.09,24.07.2,48.14.26,72.21.01,4.14-.17,8.29-.27,12.42-.43-28.22-.43-56.43,0-84.63Z"/>
      <path class="cls-1" d="m108.57,227.11c-.12-15.28-.27-30.57-.34-45.85-.05-11.3.03-22.6-.02-33.91-.01-3,.39-5.1,4.24-5.08,35.24.12,70.47.13,105.71.18.33,0,.65.12.98.19-2.85,8.07-7,15.34-13.23,21.32-23.31.01-46.62.15-69.93-.06-4.89-.04-6.23,1.59-6.16,6.32.24,16.98.1,33.96.1,50.94-6.71,3.43-13.8,5.5-21.35,5.95Z"/>
    </g>
  </g>
</svg>